<mxfile host="app.diagrams.net" modified="2023-09-07T20:45:54.421Z" agent="Mozilla/5.0 (Windows NT 10.0; Win64; x64) AppleWebKit/537.36 (KHTML, like Gecko) Chrome/116.0.0.0 Safari/537.36 Edg/116.0.1938.69" etag="YHReBv-DmX3qvO3k9fq7" version="21.7.2" type="dropbox" pages="2">
  <diagram name="Flujo" id="6jge0p03qfDbz32sxUQR">
    <mxGraphModel dx="2532" dy="824" grid="1" gridSize="10" guides="1" tooltips="1" connect="1" arrows="1" fold="1" page="1" pageScale="1" pageWidth="1654" pageHeight="1169" math="0" shadow="0">
      <root>
        <mxCell id="0" />
        <mxCell id="1" parent="0" />
        <mxCell id="TpX9KpI2mLIJqpYdv25n-14" value="" style="rounded=0;whiteSpace=wrap;html=1;fontSize=8;" vertex="1" parent="1">
          <mxGeometry x="-1160" y="440" width="950" height="140" as="geometry" />
        </mxCell>
        <mxCell id="TpX9KpI2mLIJqpYdv25n-15" style="edgeStyle=orthogonalEdgeStyle;rounded=0;orthogonalLoop=1;jettySize=auto;html=1;exitX=1;exitY=0.5;exitDx=0;exitDy=0;" edge="1" parent="1" source="TpX9KpI2mLIJqpYdv25n-26" target="TpX9KpI2mLIJqpYdv25n-17">
          <mxGeometry relative="1" as="geometry">
            <mxPoint x="-1100" y="505" as="sourcePoint" />
          </mxGeometry>
        </mxCell>
        <mxCell id="TpX9KpI2mLIJqpYdv25n-16" style="edgeStyle=orthogonalEdgeStyle;rounded=0;orthogonalLoop=1;jettySize=auto;html=1;exitX=1;exitY=0.5;exitDx=0;exitDy=0;" edge="1" parent="1" source="TpX9KpI2mLIJqpYdv25n-17" target="TpX9KpI2mLIJqpYdv25n-19">
          <mxGeometry relative="1" as="geometry">
            <mxPoint x="-901" y="503.66666666666674" as="targetPoint" />
          </mxGeometry>
        </mxCell>
        <mxCell id="TpX9KpI2mLIJqpYdv25n-17" value="Leer archivo de la ruta" style="rounded=1;whiteSpace=wrap;html=1;fillColor=#dae8fc;strokeColor=#6c8ebf;shadow=1;" vertex="1" parent="1">
          <mxGeometry x="-1030" y="470" width="80" height="70" as="geometry" />
        </mxCell>
        <mxCell id="TpX9KpI2mLIJqpYdv25n-18" value="" style="edgeStyle=orthogonalEdgeStyle;rounded=0;orthogonalLoop=1;jettySize=auto;html=1;entryX=0;entryY=0.5;entryDx=0;entryDy=0;" edge="1" parent="1" source="TpX9KpI2mLIJqpYdv25n-19" target="TpX9KpI2mLIJqpYdv25n-25">
          <mxGeometry relative="1" as="geometry">
            <mxPoint x="-813" y="490" as="targetPoint" />
          </mxGeometry>
        </mxCell>
        <mxCell id="TpX9KpI2mLIJqpYdv25n-19" value="Limpiar Tabla Oracle" style="rounded=1;whiteSpace=wrap;html=1;fillColor=#dae8fc;strokeColor=#6c8ebf;shadow=1;" vertex="1" parent="1">
          <mxGeometry x="-920" y="470" width="100" height="70" as="geometry" />
        </mxCell>
        <mxCell id="TpX9KpI2mLIJqpYdv25n-20" style="edgeStyle=orthogonalEdgeStyle;rounded=0;orthogonalLoop=1;jettySize=auto;html=1;exitX=1;exitY=0.5;exitDx=0;exitDy=0;" edge="1" parent="1" source="TpX9KpI2mLIJqpYdv25n-21" target="TpX9KpI2mLIJqpYdv25n-23">
          <mxGeometry relative="1" as="geometry" />
        </mxCell>
        <mxCell id="TpX9KpI2mLIJqpYdv25n-21" value="Obtener y Generar archivo con la información cargada" style="whiteSpace=wrap;html=1;rounded=1;fillColor=#dae8fc;strokeColor=#6c8ebf;shadow=1;" vertex="1" parent="1">
          <mxGeometry x="-630" y="470" width="120" height="70" as="geometry" />
        </mxCell>
        <mxCell id="TpX9KpI2mLIJqpYdv25n-22" style="edgeStyle=orthogonalEdgeStyle;rounded=1;orthogonalLoop=1;jettySize=auto;html=1;exitX=1;exitY=0.5;exitDx=0;exitDy=0;strokeColor=#0F0F0F;strokeWidth=1;fontSize=10;" edge="1" parent="1" source="TpX9KpI2mLIJqpYdv25n-23" target="TpX9KpI2mLIJqpYdv25n-27">
          <mxGeometry relative="1" as="geometry" />
        </mxCell>
        <mxCell id="TpX9KpI2mLIJqpYdv25n-23" value="Enviar por correo confirmación de la carga y archivo adjunto" style="rounded=1;whiteSpace=wrap;html=1;align=center;fillColor=#dae8fc;strokeColor=#6c8ebf;shadow=1;" vertex="1" parent="1">
          <mxGeometry x="-480" y="470" width="130" height="70" as="geometry" />
        </mxCell>
        <mxCell id="TpX9KpI2mLIJqpYdv25n-24" style="edgeStyle=orthogonalEdgeStyle;rounded=0;orthogonalLoop=1;jettySize=auto;html=1;exitX=1;exitY=0.5;exitDx=0;exitDy=0;" edge="1" parent="1" source="TpX9KpI2mLIJqpYdv25n-25" target="TpX9KpI2mLIJqpYdv25n-21">
          <mxGeometry relative="1" as="geometry" />
        </mxCell>
        <mxCell id="TpX9KpI2mLIJqpYdv25n-25" value="Insertar información del archivo en la tabla Oracle" style="rounded=1;whiteSpace=wrap;html=1;fillColor=#dae8fc;strokeColor=#6c8ebf;shadow=1;" vertex="1" parent="1">
          <mxGeometry x="-790" y="470" width="130" height="70" as="geometry" />
        </mxCell>
        <mxCell id="TpX9KpI2mLIJqpYdv25n-26" value="&lt;font style=&quot;font-size: 12px;&quot;&gt;Inicio&lt;/font&gt;" style="ellipse;whiteSpace=wrap;html=1;aspect=fixed;rounded=1;shadow=1;glass=0;labelBorderColor=none;sketch=0;strokeColor=#82b366;strokeWidth=1;fontSize=8;fillColor=#d5e8d4;labelPosition=center;verticalLabelPosition=bottom;align=center;verticalAlign=top;" vertex="1" parent="1">
          <mxGeometry x="-1120" y="480" width="50" height="50" as="geometry" />
        </mxCell>
        <mxCell id="TpX9KpI2mLIJqpYdv25n-27" value="&lt;font style=&quot;font-size: 12px;&quot;&gt;Fin&lt;/font&gt;" style="ellipse;whiteSpace=wrap;html=1;aspect=fixed;rounded=1;shadow=1;glass=0;labelBorderColor=none;sketch=0;strokeColor=#ae4132;strokeWidth=1;fontSize=8;fillColor=#fad9d5;labelPosition=center;verticalLabelPosition=bottom;align=center;verticalAlign=top;" vertex="1" parent="1">
          <mxGeometry x="-309.99999999999994" y="480" width="50" height="50" as="geometry" />
        </mxCell>
      </root>
    </mxGraphModel>
  </diagram>
  <diagram id="Ehx4hYKqCMwn4yqdG3gg" name="Componentes">
    <mxGraphModel dx="2439" dy="1906" grid="1" gridSize="10" guides="1" tooltips="1" connect="1" arrows="1" fold="1" page="1" pageScale="1" pageWidth="1654" pageHeight="1169" math="0" shadow="0">
      <root>
        <mxCell id="0" />
        <mxCell id="1" parent="0" />
        <mxCell id="f6T5nyCW8gLh5WlyDLFX-1" value="&lt;p style=&quot;margin-left:36.0000pt;text-indent:-18.0000pt;mso-list:l0 level1 lfo1;&quot; class=&quot;15&quot;&gt;&lt;br&gt;&lt;/p&gt;" style="rounded=0;whiteSpace=wrap;html=1;shadow=0;glass=0;labelBorderColor=none;sketch=0;fillStyle=auto;strokeColor=#000000;strokeWidth=1;fontSize=13;fontColor=#7ece78;fillColor=default;" vertex="1" parent="1">
          <mxGeometry x="-1180" y="-743.75" width="690" height="453.75" as="geometry" />
        </mxCell>
        <mxCell id="f6T5nyCW8gLh5WlyDLFX-2" value="Servidores&lt;br style=&quot;font-size: 8px;&quot;&gt;10.4.88.61:8080&lt;br&gt;10.4.88.147:8080&lt;div data-en-clipboard=&quot;true&quot; data-pm-slice=&quot;1 1 []&quot; style=&quot;font-size: 8px;&quot;&gt;10.4.88.148:8080&lt;br&gt;&lt;/div&gt;" style="rounded=0;whiteSpace=wrap;html=1;labelBorderColor=none;fontSize=8;align=left;dashed=1;strokeWidth=1;dashPattern=1 4;fontColor=#990099;strokeColor=#B5739D;" vertex="1" parent="1">
          <mxGeometry x="-960.0000000000001" y="-720" width="84.8" height="40" as="geometry" />
        </mxCell>
        <mxCell id="f6T5nyCW8gLh5WlyDLFX-3" value="" style="rounded=0;whiteSpace=wrap;html=1;labelBorderColor=none;fontSize=11;strokeWidth=1;strokeColor=#7EA6E0;shadow=1;fontStyle=1;align=center;" vertex="1" parent="1">
          <mxGeometry x="-959.85" y="-462" width="240" height="140" as="geometry" />
        </mxCell>
        <mxCell id="f6T5nyCW8gLh5WlyDLFX-40" style="edgeStyle=orthogonalEdgeStyle;rounded=0;orthogonalLoop=1;jettySize=auto;html=1;exitX=0.5;exitY=1;exitDx=0;exitDy=0;entryX=0.5;entryY=0;entryDx=0;entryDy=0;" edge="1" parent="1" source="f6T5nyCW8gLh5WlyDLFX-5" target="f6T5nyCW8gLh5WlyDLFX-3">
          <mxGeometry relative="1" as="geometry" />
        </mxCell>
        <mxCell id="f6T5nyCW8gLh5WlyDLFX-45" style="edgeStyle=orthogonalEdgeStyle;rounded=0;orthogonalLoop=1;jettySize=auto;html=1;exitX=1;exitY=0.5;exitDx=0;exitDy=0;entryX=0;entryY=0.5;entryDx=0;entryDy=0;" edge="1" parent="1" source="f6T5nyCW8gLh5WlyDLFX-5" target="f6T5nyCW8gLh5WlyDLFX-41">
          <mxGeometry relative="1" as="geometry" />
        </mxCell>
        <mxCell id="f6T5nyCW8gLh5WlyDLFX-5" value="" style="rounded=0;whiteSpace=wrap;html=1;labelBorderColor=none;fontSize=11;strokeWidth=1;strokeColor=#ffccff;shadow=1;" vertex="1" parent="1">
          <mxGeometry x="-960" y="-680" width="240" height="180" as="geometry" />
        </mxCell>
        <mxCell id="f6T5nyCW8gLh5WlyDLFX-11" style="edgeStyle=orthogonalEdgeStyle;shape=link;rounded=0;orthogonalLoop=1;jettySize=auto;html=1;exitX=0.5;exitY=1;exitDx=0;exitDy=0;entryX=0.5;entryY=0;entryDx=0;entryDy=0;strokeColor=#990099;strokeWidth=1;fontSize=12;fontColor=#7ece78;" edge="1" parent="1" source="f6T5nyCW8gLh5WlyDLFX-12" target="f6T5nyCW8gLh5WlyDLFX-15">
          <mxGeometry relative="1" as="geometry" />
        </mxCell>
        <mxCell id="f6T5nyCW8gLh5WlyDLFX-12" value="&lt;div data-en-clipboard=&quot;true&quot; data-pm-slice=&quot;1 1 []&quot;&gt;&lt;div data-en-clipboard=&quot;true&quot; data-pm-slice=&quot;1 1 []&quot;&gt;discount-porta-alta-entity-truncate&lt;/div&gt;&lt;div data-en-clipboard=&quot;true&quot; data-pm-slice=&quot;1 1 []&quot;&gt;discount-porta-alta-entity-sftp&lt;/div&gt;&lt;div data-en-clipboard=&quot;true&quot; data-pm-slice=&quot;1 1 []&quot;&gt;discount-porta-alta-entity-remotes-truncate&lt;/div&gt;&lt;div data-en-clipboard=&quot;true&quot; data-pm-slice=&quot;1 1 []&quot;&gt;discount-porta-alta-entity-remote-sftp&lt;/div&gt;&lt;div data-en-clipboard=&quot;true&quot; data-pm-slice=&quot;1 1 []&quot;&gt;discount-porta-alta-bases-sftp&lt;/div&gt;&lt;div data-en-clipboard=&quot;true&quot; data-pm-slice=&quot;1 1 []&quot;&gt;discount-porta-alta-bases-http&lt;/div&gt;&lt;/div&gt;" style="rounded=0;whiteSpace=wrap;html=1;labelBorderColor=none;fontSize=9;strokeColor=default;align=center;dashed=1;strokeWidth=1;dashPattern=1 4;" vertex="1" parent="1">
          <mxGeometry x="-934.85" y="-631.5" width="190" height="65.5" as="geometry" />
        </mxCell>
        <mxCell id="f6T5nyCW8gLh5WlyDLFX-13" value="Rutas: Start every day at 00:00am" style="text;html=1;strokeColor=none;fillColor=none;align=left;verticalAlign=middle;whiteSpace=wrap;rounded=0;fontStyle=1;fontSize=10;" vertex="1" parent="1">
          <mxGeometry x="-934.85" y="-652.5" width="190" height="20" as="geometry" />
        </mxCell>
        <mxCell id="f6T5nyCW8gLh5WlyDLFX-15" value="&lt;div data-en-clipboard=&quot;true&quot; data-pm-slice=&quot;1 1 []&quot; style=&quot;font-size: 12px;&quot;&gt;ms-campaign-loading-process-integration&lt;/div&gt;" style="rounded=1;whiteSpace=wrap;html=1;labelBorderColor=none;fontSize=12;fontStyle=1;strokeColor=#ffccff;strokeWidth=1;fillColor=#ffccff;shadow=1;fontColor=#000000;" vertex="1" parent="1">
          <mxGeometry x="-935.69" y="-564.75" width="190" height="40" as="geometry" />
        </mxCell>
        <mxCell id="f6T5nyCW8gLh5WlyDLFX-16" value="CAMEL" style="text;html=1;strokeColor=none;fillColor=none;align=left;verticalAlign=middle;whiteSpace=wrap;rounded=0;fontStyle=1;fontSize=13;" vertex="1" parent="1">
          <mxGeometry x="-959.9999999999998" y="-680" width="60" height="20" as="geometry" />
        </mxCell>
        <mxCell id="f6T5nyCW8gLh5WlyDLFX-22" style="edgeStyle=elbowEdgeStyle;rounded=1;sketch=0;orthogonalLoop=1;jettySize=auto;elbow=vertical;html=1;exitX=1;exitY=0.5;exitDx=0;exitDy=0;shadow=0;strokeColor=#000000;strokeWidth=1;fontSize=13;fontColor=#7ece78;" edge="1" parent="1">
          <mxGeometry relative="1" as="geometry">
            <mxPoint x="-369.60000000000036" y="-546" as="sourcePoint" />
            <mxPoint x="-369.60000000000036" y="-545.782608695652" as="targetPoint" />
          </mxGeometry>
        </mxCell>
        <mxCell id="f6T5nyCW8gLh5WlyDLFX-24" value="ORACLE - SCHEMA: CAMPSYS" style="text;html=1;strokeColor=none;fillColor=none;align=left;verticalAlign=middle;whiteSpace=wrap;rounded=0;fontStyle=1;fontSize=13;" vertex="1" parent="1">
          <mxGeometry x="-959.85" y="-462" width="200" height="20" as="geometry" />
        </mxCell>
        <mxCell id="f6T5nyCW8gLh5WlyDLFX-26" value="ENTITY_CHANNEL" style="rounded=1;whiteSpace=wrap;html=1;labelBorderColor=none;fontSize=10;strokeWidth=1;strokeColor=#dae8fc;shadow=1;fontStyle=0;align=center;fillColor=#dae8fc;" vertex="1" parent="1">
          <mxGeometry x="-936.5400000000001" y="-425" width="190" height="33" as="geometry" />
        </mxCell>
        <mxCell id="f6T5nyCW8gLh5WlyDLFX-28" value="ENTITY_CHANNEL_REMOTES" style="rounded=1;whiteSpace=wrap;html=1;labelBorderColor=none;fontSize=10;strokeWidth=1;strokeColor=#dae8fc;shadow=1;fontStyle=0;align=center;fillColor=#dae8fc;" vertex="1" parent="1">
          <mxGeometry x="-936.5400000000001" y="-379" width="191.84" height="34" as="geometry" />
        </mxCell>
        <mxCell id="f6T5nyCW8gLh5WlyDLFX-41" value="" style="rounded=0;whiteSpace=wrap;html=1;labelBorderColor=none;fontSize=11;fillColor=default;shadow=1;strokeColor=#FF9999;strokeWidth=1;" vertex="1" parent="1">
          <mxGeometry x="-690" y="-680" width="160" height="180" as="geometry" />
        </mxCell>
        <mxCell id="f6T5nyCW8gLh5WlyDLFX-42" value="&lt;div data-en-clipboard=&quot;true&quot; data-pm-slice=&quot;1 1 []&quot; style=&quot;&quot;&gt;ms-campaign-notify-customer-email&lt;br&gt;&lt;/div&gt;" style="rounded=1;whiteSpace=wrap;html=1;labelBorderColor=none;strokeColor=#f8cecc;strokeWidth=1;fontSize=12;fillColor=#f8cecc;fontStyle=1;shadow=1;" vertex="1" parent="1">
          <mxGeometry x="-665" y="-638" width="110" height="107.44" as="geometry" />
        </mxCell>
        <mxCell id="f6T5nyCW8gLh5WlyDLFX-43" value="OPENSHIFT" style="text;html=1;strokeColor=none;fillColor=none;align=left;verticalAlign=middle;whiteSpace=wrap;rounded=0;fontStyle=1;fontSize=13;" vertex="1" parent="1">
          <mxGeometry x="-689.9999999999998" y="-680" width="78.06" height="20" as="geometry" />
        </mxCell>
        <mxCell id="f6T5nyCW8gLh5WlyDLFX-44" value="apps.ocpprod.gp.inet" style="rounded=0;whiteSpace=wrap;html=1;labelBorderColor=none;fontSize=8;strokeColor=#CC0066;align=left;dashed=1;strokeWidth=1;dashPattern=1 4;fontColor=#FF0080;" vertex="1" parent="1">
          <mxGeometry x="-690" y="-698" width="84.8" height="18" as="geometry" />
        </mxCell>
        <mxCell id="f6T5nyCW8gLh5WlyDLFX-50" style="edgeStyle=orthogonalEdgeStyle;rounded=0;orthogonalLoop=1;jettySize=auto;html=1;exitX=1;exitY=0.5;exitDx=0;exitDy=0;entryX=0;entryY=0.5;entryDx=0;entryDy=0;" edge="1" parent="1" source="f6T5nyCW8gLh5WlyDLFX-46" target="f6T5nyCW8gLh5WlyDLFX-5">
          <mxGeometry relative="1" as="geometry" />
        </mxCell>
        <mxCell id="f6T5nyCW8gLh5WlyDLFX-46" value="" style="rounded=0;whiteSpace=wrap;html=1;labelBorderColor=none;fontSize=11;fillColor=default;shadow=1;strokeColor=#99ffcc;strokeWidth=1;" vertex="1" parent="1">
          <mxGeometry x="-1140" y="-680" width="150" height="180" as="geometry" />
        </mxCell>
        <mxCell id="f6T5nyCW8gLh5WlyDLFX-48" value="SFTP" style="text;html=1;strokeColor=none;fillColor=none;align=left;verticalAlign=middle;whiteSpace=wrap;rounded=0;fontStyle=1;fontSize=13;" vertex="1" parent="1">
          <mxGeometry x="-1139.9999999999998" y="-680" width="78.06" height="20" as="geometry" />
        </mxCell>
        <mxCell id="f6T5nyCW8gLh5WlyDLFX-51" value="&lt;div style=&quot;font-size: 11px;&quot; data-en-clipboard=&quot;true&quot; data-pm-slice=&quot;1 1 []&quot;&gt;&lt;div data-en-clipboard=&quot;true&quot; data-pm-slice=&quot;1 1 []&quot;&gt;Host:&lt;/div&gt;&lt;div data-en-clipboard=&quot;true&quot; data-pm-slice=&quot;1 1 []&quot;&gt;Ruta&lt;/div&gt;&lt;/div&gt;" style="rounded=0;whiteSpace=wrap;html=1;labelBorderColor=none;fontSize=9;strokeColor=#82b366;align=center;dashed=1;strokeWidth=1;dashPattern=1 4;fillColor=#99ffcc;" vertex="1" parent="1">
          <mxGeometry x="-1120" y="-647.61" width="110" height="115.23" as="geometry" />
        </mxCell>
        <mxCell id="f6T5nyCW8gLh5WlyDLFX-52" value="racrtd.gp.inet" style="rounded=0;whiteSpace=wrap;html=1;labelBorderColor=none;fontSize=8;strokeColor=#B5739D;align=left;dashed=1;strokeWidth=1;dashPattern=1 4;fontColor=#0066CC;" vertex="1" parent="1">
          <mxGeometry x="-960" y="-480" width="55.04" height="18" as="geometry" />
        </mxCell>
      </root>
    </mxGraphModel>
  </diagram>
</mxfile>
